<svg width="746" height="85" viewBox="0 0 746 85" fill="none" xmlns="http://www.w3.org/2000/svg">
<path d="M176.473 84.7347H159.022V29.6392C158.643 29.5543 158.682 29.7783 158.607 30.0666C157.854 32.9797 157.436 36.3966 156.819 39.3977C153.709 54.5202 150.461 69.6239 147.35 84.7437L137.472 84.587L125.941 29.9036L125.585 29.7909L125.434 84.7347H108.755L108.523 84.5031V3.78927L108.755 3.55762H133.31L142.419 43.9908L151.224 3.55762H176.242C176.587 3.55762 176.473 4.0097 176.473 4.09769V84.7347H176.473Z" fill="#1D1D1C"/>
<path d="M0.884766 3.78909L1.41721 3.54981C13.0178 3.93814 24.9236 3.06091 36.4883 3.55026C49.437 4.09796 58.133 11.3573 58.8028 24.6172C59.2746 33.956 56.524 44.5922 47.3791 48.7885L61.2675 84.735H38.8749L27.9104 53.2518H21.1153V84.5033L20.8836 84.735H0.884766V3.78909ZM21.3469 18.3733L21.1153 18.605V39.1309L21.3469 39.3626H31.0763C32.8142 39.3626 35.1585 38.1522 36.2463 36.8126C39.7489 32.501 39.2636 18.3738 31.6941 18.3738L21.3469 18.3733Z" fill="#1D1D1C"/>
<path d="M224.268 3.55762L232.142 27.1691L239.431 3.90554C239.462 3.76278 239.775 3.55762 239.866 3.55762H258.552C258.619 3.55762 258.814 3.80319 258.781 3.93248L245.364 42.3684L261.255 84.7347H240.021L231.065 57.2628L222.802 84.7347H202.88L218.312 42.3715L203.873 3.87187L204.038 3.55762H224.268Z" fill="#1D1D1C"/>
<path d="M478.15 83.8123H456.273L445.334 52.1932H439.458C439.517 52.3709 439.277 52.5853 439.277 52.6447V83.8118H418.305V1.96401L456.191 1.95508C473.598 2.94582 477.657 19.7952 474.483 34.3457C473.437 39.1438 471.027 43.5467 466.814 46.1947C466.364 46.4769 464.571 47.1202 464.612 47.5512L478.149 83.8118L478.15 83.8123ZM439.458 16.5991C439.517 16.7768 439.277 16.9912 439.277 17.0506V37.648L439.549 37.9192H448.408C455.866 37.9192 456.079 24.9818 453.775 20.2698C452.912 18.5065 450.631 16.5991 448.589 16.5991H439.458Z" fill="#1D1D1C"/>
<path d="M551.282 1.96537C552.13 3.97733 552.804 6.15276 553.489 8.25197C557.643 20.9865 561.378 33.8719 565.57 46.5918C565.669 46.8924 565.79 47.4506 566.198 47.3155V1.96484H582.47L582.38 83.8126H561.588L545.814 34.5373L545.407 34.3066V83.8126H529.135V1.96484H551.283L551.282 1.96537Z" fill="#1D1D1C"/>
<path d="M683.535 83.8121H663.557L662.978 82.5844L653.745 51.8809C653.331 51.1813 651.203 51.4872 650.352 51.4793C649.556 51.4725 648.894 50.877 648.812 52.2882C648.498 57.7191 648.94 63.447 649.011 68.8964C648.808 73.8459 648.861 78.8117 648.822 83.8121H629.477V1.96439L661.576 1.95703C679.98 2.4185 684.093 24.0434 678.84 38.1955C677.37 42.1543 675.027 44.9594 671.479 47.2199L683.536 83.8127L683.535 83.8121ZM649.003 38.4615H655.241C662.949 38.4615 662.683 22.8919 659.458 18.5274C656.956 15.141 652.791 16.1916 649.121 16.0481L648.926 16.3971L649.003 38.4615Z" fill="#1D1D1C"/>
<path d="M104.044 18.2191H84.6629L84.4313 18.4507V35.118L84.6629 35.3497H102.114L102.345 35.5813V49.7795L102.114 50.0111H84.6629L84.4313 50.2428V69.997L84.6629 70.2286H104.044V84.7356H64.8957L64.6641 84.504V3.71205C64.8158 3.76233 64.999 3.55762 65.0501 3.55762H103.812L104.044 3.78927V18.2191Z" fill="#1D1D1C"/>
<path d="M324.11 83.8123H302.775V2.05499L303.399 1.77485C315.813 2.20268 328.664 1.16674 341.012 1.9667C358.289 3.08621 362.543 16.6759 360.989 31.8644C359.508 46.3408 353.042 53.9067 338.119 54.7214C333.898 54.9516 328.774 54.2399 324.733 54.714C324.469 54.745 324.267 54.7366 324.109 54.9942L324.11 83.8123ZM324.381 16.78L324.11 17.0512V39.094L324.381 39.3652H333.24C334.62 39.3652 337.049 37.9156 337.943 36.8376C341.065 33.0749 341.014 23.1433 337.847 19.4037C336.811 18.1817 334.304 16.78 332.698 16.78H324.381Z" fill="#1D1D1C"/>
<path d="M416.135 83.8115H395.163L392.463 68.3513L375.996 68.3618L375.676 68.9457L373.247 83.502L373.014 83.8115H354.482L372.826 1.95117L398.041 2.24865L416.135 83.8115H416.135ZM378.8 53.6378H389.649C389.712 53.6378 390.114 53.2368 390.057 53.0466L384.044 19.4933C383.697 19.713 383.805 19.9837 383.767 20.2969C382.508 30.649 380.149 40.908 378.763 51.2517C378.698 51.7342 378.289 53.4786 378.8 53.6384V53.6378Z" fill="#1D1D1C"/>
<path d="M700.71 64.0283C701.08 67.8772 703.035 71.1664 707.304 70.9835C713.685 70.7102 714.11 62.0952 711.421 57.8411C707.235 51.2197 694.247 45.5443 688.322 39.1873C681.37 31.7276 681.714 14.6869 688.504 7.20243C695.446 -0.450188 711.383 -0.894313 719.928 3.98896C728.364 8.80916 729.387 18.9594 729.259 27.7851L712.461 27.803C712.44 23.8127 712.992 16.1795 708.353 14.4724C704.241 12.9592 701.866 16.8712 701.616 20.4868C701.142 27.3189 705.233 29.6315 710.054 33.1893C715.409 37.1412 724.31 42.1296 727.614 47.8023C732.673 56.4914 732.448 72.1713 724.664 79.2942C717.026 86.284 699.111 86.3287 690.782 80.6344C682.83 75.1977 682.671 65.6351 682.991 56.8913H700.71C700.871 59.1887 700.492 61.7657 700.71 64.0283Z" fill="#1D1D1C"/>
<path d="M608.323 34.4869H623.872V48.9412H608.594L608.323 49.2124V68.9967L624.514 68.9872L625.138 69.2679V83.5414L624.866 83.8126H589.158V1.96484H624.866L625.138 2.23552V16.3287L624.866 16.5994H608.594L608.323 16.8706V34.4869Z" fill="#1D1D1C"/>
<path d="M201.181 84.7343H182.031V3.78882L182.263 3.55762H200.949L201.181 3.78882V84.7343Z" fill="#1D1D1C"/>
<path d="M526.603 1.96484V16.5994H512.59L512.319 16.8706V83.5414L512.048 83.8126H491.798L491.527 83.5414V16.8706L491.256 16.5994H477.063V1.96484H526.603Z" fill="#1D1D1C"/>
<path d="M744.659 79.5645C744.659 77.289 742.815 75.4443 740.539 75.4443C738.264 75.4443 736.419 77.289 736.419 79.5645C736.419 81.8401 738.264 83.6848 740.539 83.6848C742.815 83.6848 744.659 81.8401 744.659 79.5645ZM745.709 79.5645C745.709 82.4198 743.394 84.7345 740.539 84.7345C737.684 84.7345 735.369 82.4198 735.369 79.5645C735.369 76.7092 737.684 74.3945 740.539 74.3945C743.394 74.3945 745.709 76.7092 745.709 79.5645Z" fill="#1D1D1C"/>
<path d="M740.256 79.1442C740.544 79.1442 740.754 79.0864 740.88 78.9762C741.006 78.8712 741.074 78.6928 741.074 78.4408C741.074 78.1941 741.006 78.0209 740.88 77.9107C740.754 77.8057 740.544 77.7532 740.256 77.7532H739.668V79.1442H740.256ZM739.668 80.1047V82.1517H738.271V76.7402H740.402C741.116 76.7402 741.636 76.861 741.967 77.1024C742.303 77.3386 742.465 77.7165 742.465 78.2361C742.465 78.593 742.381 78.887 742.208 79.1179C742.035 79.3436 741.778 79.5168 741.426 79.6218C741.62 79.669 741.788 79.7688 741.94 79.921C742.093 80.0732 742.245 80.3041 742.397 80.619L743.158 82.1517H741.673L741.011 80.808C740.88 80.5403 740.744 80.3514 740.607 80.2569C740.471 80.1572 740.287 80.1047 740.061 80.1047H739.668Z" fill="#1D1D1C"/>
</svg>
